<svg xmlns="http://www.w3.org/2000/svg" viewBox="0 0 64 64" fill="none">
  <defs>
    <linearGradient id="s" x1="32" y1="12" x2="32" y2="60" gradientUnits="userSpaceOnUse">
      <stop offset="0%" stop-color="#ede6db"/>
      <stop offset="100%" stop-color="#c4b8a8"/>
    </linearGradient>
    <linearGradient id="g" x1="32" y1="4" x2="32" y2="20" gradientUnits="userSpaceOnUse">
      <stop offset="0%" stop-color="#ffd166"/>
      <stop offset="100%" stop-color="#f0a020"/>
    </linearGradient>
  </defs>

  <!-- Obelisk simplified: apex + tapered body + base -->
  <path d="M22 58 L28 26 L36 26 L42 58 Z" fill="url(#s)"/>
  <rect x="20" y="58" width="24" height="4" rx="1" fill="#b0a090"/>
  <path d="M28 26 L32 14 L36 26 Z" fill="url(#s)"/>

  <!-- Sun — bold, high contrast -->
  <g stroke="#ffd166" stroke-width="2.5" stroke-linecap="round">
    <line x1="32" y1="10" x2="32" y2="2"/>
    <line x1="32" y1="10" x2="40" y2="10"/>
    <line x1="32" y1="10" x2="24" y2="10"/>
    <line x1="32" y1="10" x2="37.5" y2="4.5"/>
    <line x1="32" y1="10" x2="26.5" y2="4.5"/>
    <line x1="32" y1="10" x2="37.5" y2="15.5"/>
    <line x1="32" y1="10" x2="26.5" y2="15.5"/>
  </g>
  <circle cx="32" cy="10" r="5" fill="url(#g)"/>
  <circle cx="32" cy="10" r="2.5" fill="#ffd166"/>

  <!-- Star — single bold accent -->
  <polygon points="32,36 33.5,40 38,40 34.5,43 36,47 32,44.5 28,47 29.5,43 26,40 30.5,40"
           fill="#ffd166"/>
</svg>
